<svg xmlns="http://www.w3.org/2000/svg" viewBox="0 0 750 500"><g id="freepik--Floor--inject-32"><path d="M729.53,428c0,.14-158.8.26-354.64.26S20.22,428.14,20.22,428s158.76-.26,354.67-.26S729.53,427.85,729.53,428Z" style="fill:#263238"></path></g><g id="freepik--device-2--inject-32"><path d="M566.44,120.16H218.28A10.86,10.86,0,0,0,207.41,131V376.94a10.86,10.86,0,0,0,10.87,10.87H351.9s8.5,26.29-17.85,39.89H459s-29.75-10.2-22.1-39.89H566.44A10.87,10.87,0,0,0,577.31,377V131A10.87,10.87,0,0,0,566.44,120.16Z" style="fill:#455a64"></path><path d="M397,362c4.73,6.77-2.68,14.18-9.45,9.45a2.32,2.32,0,0,1-.58-.59c-4.72-6.76,2.68-14.17,9.45-9.44A2.46,2.46,0,0,1,397,362Z" style="fill:#263238"></path><path d="M223.1,124.66H561.62a9.7,9.7,0,0,1,9.7,9.7V342.82a0,0,0,0,1,0,0H213.4a0,0,0,0,1,0,0V134.36A9.7,9.7,0,0,1,223.1,124.66Z" style="fill:#fff"></path><path d="M222.56,124.66H563.8a7.52,7.52,0,0,1,7.52,7.52v10.61a0,0,0,0,1,0,0H213.4a0,0,0,0,1,0,0v-9A9.15,9.15,0,0,1,222.56,124.66Z" style="fill:#ebebeb"></path><circle cx="224.8" cy="134.11" r="2.51" style="fill:#e0e0e0"></circle><circle cx="232.3" cy="134.11" r="2.51" style="fill:#e0e0e0"></circle><circle cx="239.42" cy="134.11" r="2.51" style="fill:#e0e0e0"></circle><path d="M504.2,387.85c0,.11-49.55.21-110.65.21s-110.66-.1-110.66-.21,49.54-.21,110.66-.21S504.2,387.73,504.2,387.85Z" style="fill:#263238"></path><rect x="213.52" y="172.13" width="356.98" height="79.69" style="fill:#f5f5f5"></rect><rect x="222.29" y="151.14" width="51.52" height="13.48" style="fill:#f5f5f5"></rect><rect x="533.82" y="151.14" width="28.21" height="13.48" style="fill:#f5f5f5"></rect><rect x="479.18" y="151.14" width="46.16" height="13.48" style="fill:#f5f5f5"></rect><rect x="423.42" y="151.14" width="46.16" height="13.48" style="fill:#f5f5f5"></rect><rect x="230.9" y="274.27" width="314.62" height="14.12" style="fill:#f5f5f5"></rect><rect x="230.9" y="300.55" width="314.62" height="14.12" style="fill:#f5f5f5"></rect><polygon points="354.79 220.05 363.46 211.38 378.58 225.16 405.24 198.54 413.29 207.21 377.34 241.89 354.79 220.05" style="fill:#A1DAB7"></polygon><path d="M367.26,199.71a37.08,37.08,0,0,1-5.77-6.81,19.53,19.53,0,0,1,3.08,3.24A20.39,20.39,0,0,1,367.26,199.71Z" style="fill:#263238"></path><path d="M378.89,198.45a89.46,89.46,0,0,1-.71-9.69,92.88,92.88,0,0,1-.18-9.71,90.85,90.85,0,0,1,.7,9.69A91.44,91.44,0,0,1,378.89,198.45Z" style="fill:#263238"></path><path d="M396.86,192.51a46,46,0,0,1-6,7.6,22.28,22.28,0,0,1,2.8-4A23.19,23.19,0,0,1,396.86,192.51Z" style="fill:#263238"></path></g><g id="freepik--device-3--inject-32"><rect x="480.63" y="194.23" width="162.81" height="233.64" rx="7.27" style="fill:#e0e0e0"></rect><path d="M636.17,427.87l.51,0a6.53,6.53,0,0,0,1.47-.27,7.25,7.25,0,0,0,4.42-3.63,7.44,7.44,0,0,0,.67-1.93,11.15,11.15,0,0,0,.13-2.27c0-1.61,0-3.36,0-5.26,0-3.8,0-8.19,0-13.12,0-19.75-.05-48.32-.09-83.63,0-17.65,0-37,0-57.74q0-15.57,0-32.17,0-8.3,0-16.83V202.4a11.41,11.41,0,0,0-.11-2.12,6.72,6.72,0,0,0-.67-2,7.06,7.06,0,0,0-2.9-3,7.32,7.32,0,0,0-2-.71,10.85,10.85,0,0,0-2.15-.14H487.92a7.17,7.17,0,0,0-4.49,1.61,7.07,7.07,0,0,0-2.41,4.1,12.34,12.34,0,0,0-.13,2.45v66.07c0,25.4,0,49.91,0,73.25s0,45.53,0,66.29c0,2.59,0,5.16,0,7.71v3.81a8.27,8.27,0,0,0,.57,3.61,7.09,7.09,0,0,0,5.5,4.2,12,12,0,0,0,1.81.08h5.46l27.71,0,83.62.08,22.73.05,5.92,0,2,0-2,0-5.92,0-22.73.05-83.62.08-27.71,0h-5.46a11.63,11.63,0,0,1-1.86-.08,7.49,7.49,0,0,1-5.83-4.43,8.77,8.77,0,0,1-.61-3.78V408.26c0-20.76,0-42.95,0-66.29s0-47.85,0-73.25q0-19.05,0-38.75V202.65a12.28,12.28,0,0,1,.14-2.55,7.52,7.52,0,0,1,7.41-6.13H635.39a12.1,12.1,0,0,1,2.24.14,8.27,8.27,0,0,1,2.12.77,7.6,7.6,0,0,1,3.1,3.18,7.24,7.24,0,0,1,.7,2.12,11.74,11.74,0,0,1,.12,2.2v25.41q0,16.58,0,32.17c0,20.75,0,40.09,0,57.74,0,35.31-.06,63.88-.08,83.63,0,4.93,0,9.32,0,13.12,0,1.9,0,3.65,0,5.26a11.36,11.36,0,0,1-.15,2.29,7.26,7.26,0,0,1-5.18,5.59,7.07,7.07,0,0,1-1.49.25Z" style="fill:#263238"></path><path d="M636.17,427.87l.51,0c.17,0,.37,0,.62-.08a5.82,5.82,0,0,0,.85-.19,7.19,7.19,0,0,0,4.43-3.63,7.22,7.22,0,0,0,.68-1.93,12,12,0,0,0,.14-2.28c0-1.6,0-3.36,0-5.26q0-5.7,0-13.12c0-19.75,0-48.32,0-83.63,0-17.65,0-37,0-57.74q0-15.57,0-32.17V202.4a11.51,11.51,0,0,0-.12-2.13,6.71,6.71,0,0,0-.67-2,7.29,7.29,0,0,0-2.93-3,8,8,0,0,0-2-.72,11,11,0,0,0-2.16-.14H487.92a7.12,7.12,0,0,0-7,5.79,13.45,13.45,0,0,0-.13,2.47v66.07c0,25.4,0,49.91,0,73.25s0,45.53,0,66.29q0,3.89,0,7.71v3.81a12.81,12.81,0,0,0,.09,1.87,7.27,7.27,0,0,0,.49,1.77,7.15,7.15,0,0,0,5.56,4.24,12.2,12.2,0,0,0,1.82.08h33.17l83.62.06,22.73,0h5.92l2,0-2,0h-5.92l-22.73,0-83.62.06H488.72a12.79,12.79,0,0,1-1.85-.08,7.43,7.43,0,0,1-5.77-4.39,7.28,7.28,0,0,1-.51-1.84,11.16,11.16,0,0,1-.09-1.91V408.26c0-20.76,0-42.94,0-66.29s0-47.85,0-73.25V202.65a12.67,12.67,0,0,1,.13-2.53,7.43,7.43,0,0,1,7.32-6.05H635.39a11.83,11.83,0,0,1,2.22.14,8.25,8.25,0,0,1,2.1.76,7.53,7.53,0,0,1,3.06,3.14,7.36,7.36,0,0,1,.7,2.09,11.54,11.54,0,0,1,.12,2.19c0,2.88,0,5.74,0,8.58v16.83q0,16.58,0,32.17c0,20.75,0,40.09,0,57.74,0,35.31,0,63.88,0,83.63q0,7.41,0,13.12c0,1.9,0,3.66,0,5.26a11.36,11.36,0,0,1-.15,2.29,7.32,7.32,0,0,1-2.93,4.52,7.3,7.3,0,0,1-2.24,1.06,5.65,5.65,0,0,1-.86.19,3.89,3.89,0,0,1-.62.06Z" style="fill:#263238"></path><path d="M568.28,416.13a6.25,6.25,0,1,1-6.25-6.25A6.25,6.25,0,0,1,568.28,416.13Z" style="fill:#fff"></path><path d="M582.37,205.46H549.12a2.31,2.31,0,0,1-2.31-2.32h0a2.31,2.31,0,0,1,2.31-2.32h33.25a2.32,2.32,0,0,1,2.32,2.32h0A2.32,2.32,0,0,1,582.37,205.46Z" style="fill:#ebebeb"></path><rect x="485.62" y="210.9" width="152.54" height="195.12" rx="2.43" style="fill:#fff"></rect><path d="M635.73,406s.15,0,.44-.06a2.5,2.5,0,0,0,1.17-.59,2.44,2.44,0,0,0,.78-1.95c0-.87,0-1.89,0-3,0-4.61,0-11.4-.05-20.13,0-17.5,0-42.8-.08-74.06,0-15.64,0-32.76,0-51.14q0-13.8,0-28.49v-13a2.33,2.33,0,0,0-.5-1.61,2.19,2.19,0,0,0-1.47-.78c-.59,0-1.25,0-1.88,0H622.57l-134.5,0a2.18,2.18,0,0,0-1.73.84,2.23,2.23,0,0,0-.41.9,6,6,0,0,0-.05,1.06v65.19c0,22.5,0,44.2,0,64.87s0,40.32,0,58.71v.86a2.25,2.25,0,0,0,1.13,1.93,2.75,2.75,0,0,0,1.55.28h46l74.06.08,20.13,0,5.24,0,1.78,0L634,406l-5.24,0-20.13.05-74.06.08-24.54,0H488.52a3.25,3.25,0,0,1-1.76-.34,2.61,2.61,0,0,1-1.18-1.39,2.58,2.58,0,0,1-.17-.91v-.86c0-18.39,0-38,0-58.71s0-42.37,0-64.87V244.83q0-8.72,0-17.55V214a6.73,6.73,0,0,1,.06-1.16,2.63,2.63,0,0,1,.51-1.11,2.69,2.69,0,0,1,2.14-1.05l134.5,0h11.51c.65,0,1.25,0,1.93,0a2.66,2.66,0,0,1,1.78,1,2.78,2.78,0,0,1,.61,1.9v13q0,14.69,0,28.49c0,18.38,0,35.5,0,51.14,0,31.26-.07,56.56-.09,74.06,0,8.73,0,15.52,0,20.13,0,1.15,0,2.17,0,3a2.49,2.49,0,0,1-.83,2,2.37,2.37,0,0,1-1.19.58A1.7,1.7,0,0,1,635.73,406Z" style="fill:#263238"></path><rect x="486.54" y="238.69" width="151" height="55.28" style="fill:#f5f5f5"></rect><rect x="489.9" y="219.98" width="35.74" height="9.35" style="fill:#f5f5f5"></rect><rect x="602.53" y="219.98" width="32.02" height="9.35" style="fill:#f5f5f5"></rect><rect x="564.42" y="219.98" width="32.02" height="9.35" style="fill:#f5f5f5"></rect><rect x="495.92" y="322.44" width="128.92" height="9.8" style="fill:#f5f5f5"></rect><rect x="495.92" y="303.91" width="128.92" height="9.8" style="fill:#f5f5f5"></rect><rect x="495.92" y="360.39" width="128.92" height="9.8" style="fill:#f5f5f5"></rect><rect x="495.92" y="341.86" width="128.92" height="9.8" style="fill:#f5f5f5"></rect><polygon points="532.78 287.35 541.46 278.68 556.58 292.46 583.23 265.84 591.28 274.51 555.34 309.19 532.78 287.35" style="fill:#A1DAB7"></polygon></g><g id="freepik--device-4--inject-32"><path d="M685.27,428.15l-63.08,0a13.72,13.72,0,0,1-13.73-13.7l0-157.67A13.73,13.73,0,0,1,622.24,243l63.08,0a13.71,13.71,0,0,1,13.73,13.7l0,157.67A13.73,13.73,0,0,1,685.27,428.15Z" style="fill:#263238"></path><path d="M685.71,247.78l-12.27-.06a3,3,0,0,0-3,3.1v2.23a3.05,3.05,0,0,1-3,3.1L643.52,256a3.05,3.05,0,0,1-3-3.13v-2.23a3.06,3.06,0,0,0-3-3.13l-4.32,0-10.74-.05a9.67,9.67,0,0,0-9.7,9.62L612.19,412a9.65,9.65,0,0,0,9.61,9.69L685,422a9.66,9.66,0,0,0,9.7-9.61l.65-154.88A9.65,9.65,0,0,0,685.71,247.78Z" style="fill:#fff"></path><rect x="612.66" y="275.35" width="82.2" height="30.09" style="fill:#f5f5f5"></rect><rect x="614.49" y="265.16" width="19.45" height="5.09" style="fill:#f5f5f5"></rect><rect x="675.8" y="265.16" width="17.43" height="5.09" style="fill:#f5f5f5"></rect><rect x="655.06" y="265.16" width="17.43" height="5.09" style="fill:#f5f5f5"></rect><rect x="617.76" y="320.94" width="70.18" height="5.33" style="fill:#f5f5f5"></rect><rect x="617.76" y="310.85" width="70.18" height="5.33" style="fill:#f5f5f5"></rect><rect x="617.76" y="341.6" width="70.18" height="5.33" style="fill:#f5f5f5"></rect><rect x="617.76" y="351.03" width="70.18" height="5.33" style="fill:#f5f5f5"></rect><rect x="617.76" y="361.82" width="70.18" height="5.33" style="fill:#f5f5f5"></rect><rect x="617.76" y="372.6" width="70.18" height="5.33" style="fill:#f5f5f5"></rect><rect x="617.76" y="383.39" width="70.18" height="5.33" style="fill:#f5f5f5"></rect><rect x="617.76" y="331.51" width="70.18" height="5.33" style="fill:#f5f5f5"></rect><polygon points="631.5 341.02 638.28 334.24 651.37 345.87 677.07 321.14 683.37 327.93 650.4 358.96 631.5 341.02" style="fill:#A1DAB7"></polygon></g><g id="freepik--device-1--inject-32"><rect x="39.01" y="243.22" width="273.16" height="180.64" rx="14.57" style="fill:#263238"></rect><path d="M28.34,412.19H324.28a0,0,0,0,1,0,0v.7a15.1,15.1,0,0,1-15.1,15.1H43.44a15.1,15.1,0,0,1-15.1-15.1v-.7A0,0,0,0,1,28.34,412.19Z" style="fill:#263238"></path><rect x="46.35" y="250.4" width="257.73" height="152.55" style="fill:#263238"></rect><polygon points="148.66 410.5 152.34 416.34 204.01 416.34 207.42 410.5 148.66 410.5" style="fill:#455a64"></polygon><rect x="51.65" y="255.56" width="247.64" height="146.89" rx="3.27" style="fill:#ebebeb"></rect><polygon points="299.03 402.67 51.39 402.67 51.65 266.54 299.03 266.54 299.03 402.67" style="fill:#fff"></polygon><path d="M72,261.24a2,2,0,1,1-2-2A2,2,0,0,1,72,261.24Z" style="fill:#263238"></path><path d="M60,261.24a2,2,0,1,1-2-2A2,2,0,0,1,60,261.24Z" style="fill:#263238"></path><path d="M65.73,261.24a2,2,0,1,1-2-2A2,2,0,0,1,65.73,261.24Z" style="fill:#263238"></path><path d="M309.82,410.5c0,.1-60.62.18-135.39.18S39,410.6,39,410.5s60.62-.18,135.42-.18S309.82,410.4,309.82,410.5Z" style="fill:#455a64"></path><rect x="51.65" y="288.49" width="247.64" height="55.28" style="fill:#f5f5f5"></rect><rect x="57.73" y="273.93" width="35.74" height="9.35" style="fill:#f5f5f5"></rect><rect x="273.85" y="273.93" width="19.57" height="9.35" style="fill:#f5f5f5"></rect><rect x="235.95" y="273.93" width="32.02" height="9.35" style="fill:#f5f5f5"></rect><rect x="197.27" y="273.93" width="32.02" height="9.35" style="fill:#f5f5f5"></rect><rect x="63.75" y="376.39" width="218.26" height="9.8" style="fill:#f5f5f5"></rect><rect x="63.75" y="357.85" width="218.26" height="9.8" style="fill:#f5f5f5"></rect><polygon points="144.08 325.27 152.76 316.6 169.48 331.46 202.31 299.87 210.36 308.54 168.24 348.19 144.08 325.27" style="fill:#A1DAB7"></polygon></g><g id="freepik--Target--inject-32"><circle cx="245.48" cy="138.63" r="69.71" style="fill:#A1DAB7"></circle><circle cx="245.48" cy="138.63" r="69.71" style="opacity:0.30000000000000004"></circle><circle cx="243.6" cy="134.17" r="69.71" style="fill:#A1DAB7"></circle><circle cx="243.6" cy="134.17" r="54.23" transform="translate(-33.02 105.48) rotate(-22.92)" style="fill:#fff"></circle><circle cx="243.6" cy="134.17" r="38.16" transform="translate(-23.53 211.55) rotate(-45)" style="fill:#A1DAB7"></circle><circle cx="243.6" cy="134.17" r="20.13" transform="translate(-33.27 107.98) rotate(-23.44)" style="fill:#fff"></circle><polygon points="297.54 77.71 295.64 62.84 310.78 46.63 311.87 62.69 297.54 77.71" style="fill:#455a64"></polygon><polygon points="330.03 65.88 314.67 64.63 299.28 79.44 314.68 81.08 330.03 65.88" style="fill:#455a64"></polygon><path d="M243.6,135.34l57.23-41a77.08,77.08,0,0,0-7.26-9l-49,47.4Z" style="opacity:0.30000000000000004"></path><path d="M314.14,59.58,307,66.86,289.71,84.34l-20.77,21q-9,9.15-18.05,18.29c-2.92,3-6,5.84-8.79,8.9l-.13.13c-1.69,1.72,1,4.37,2.66,2.65l7.18-7.28,17.25-17.47,20.77-21q9-9.15,18.05-18.29c2.92-3,6-5.84,8.79-8.91l.12-.12c1.7-1.72-1-4.38-2.65-2.66Z" style="fill:#263238"></path></g></svg>
